 http://www.imdb.com/title/tt1075417/

User Rating:6.2/10 - 3,946 votes

Adventure,Fantasy,Sci-Fi,Thriller

Director:Andy Fickman

Cast:Dwayne Johnson/AnnaSophia Robb/Alexander Ludwig/Carla Gugino, and others.

Plot:
A Las Vegas cabbie enlists the help of a UFO expert to protect two siblings with paranormal powers from the clutches of an organization that wants to use the kids for their nefarious plans...

Info:

Covers included.

General
Complete name                    : Race to Witch Mountain-AC3-5,1-DVDRip[Eng]2009.avi
Format                           : AVI
Format/Info                      : Audio Video Interleave
File size                        : 1.36 GiB
Duration                         : 1h 38mn
Overall bit rate                 : 1 984 Kbps
Writing application              : VirtualDubMod 1.5.4.1 (build 2178/release)
Writing library                  : VirtualDubMod build 2178/release

Video
Format                           : MPEG-4 Visual
Format profile                   : Simple@L3
Format settings, BVOP            : No
Format settings, QPel            : No
Format settings, GMC             : No warppoints
Format settings, Matrix          : Default
Codec ID                         : XVID
Codec ID/Hint                    : XviD
Duration                         : 1h 38mn
Bit rate                         : 1 591 Kbps
Width                            : 640 pixels
Height                           : 272 pixels
Display aspect ratio             : 2.35
Frame rate                       : 23.976 fps
Resolution                       : 24 bits
Colorimetry                      : 4:2:0
Scan type                        : Progressive
Bits/(Pixel*Frame)               : 0.381
Stream size                      : 1.09 GiB (80%)
Writing library                  : XviD 1.1.2 (UTC 2006-11-01)

Audio
Format                           : AC-3
Format/Info                      : Audio Coding 3
Codec ID                         : 2000
Duration                         : 1h 38mn
Bit rate mode                    : Constant
Bit rate                         : 384 Kbps
Channel(s)                       : 6 channels
Channel positions                : Front: L C R, Surround: L R, LFE
Sampling rate                    : 48.0 KHz
Stream size                      : 270 MiB (19%)
Alignment                        : Split accross interleaves
Interleave, duration             : 42 ms (1.00 video frame)
Interleave, preload duration     : 500 ms

Enjoy....